<svg width="30" height="30" viewBox="0 0 30 30" fill="none" xmlns="http://www.w3.org/2000/svg">
<path d="M15 9.60938C13.9338 9.60938 12.8916 9.92553 12.0051 10.5179C11.1186 11.1102 10.4277 11.9521 10.0197 12.9371C9.61171 13.9221 9.50496 15.006 9.71295 16.0517C9.92095 17.0973 10.4344 18.0579 11.1883 18.8117C11.9421 19.5656 12.9027 20.079 13.9483 20.287C14.994 20.495 16.0779 20.3883 17.0629 19.9803C18.0479 19.5723 18.8898 18.8814 19.4821 17.9949C20.0745 17.1084 20.3906 16.0662 20.3906 15C20.3906 13.5703 19.8227 12.1992 18.8117 11.1883C17.8008 10.1773 16.4297 9.60938 15 9.60938ZM15 18.9844C14.212 18.9844 13.4416 18.7507 12.7864 18.3129C12.1312 17.8751 11.6205 17.2528 11.3189 16.5248C11.0173 15.7967 10.9384 14.9956 11.0922 14.2227C11.2459 13.4498 11.6254 12.7398 12.1826 12.1826C12.7398 11.6254 13.4498 11.2459 14.2227 11.0922C14.9956 10.9384 15.7967 11.0173 16.5248 11.3189C17.2528 11.6205 17.8751 12.1312 18.3129 12.7864C18.7507 13.4416 18.9844 14.212 18.9844 15C18.9813 16.0558 18.5605 17.0674 17.814 17.814C17.0674 18.5605 16.0558 18.9813 15 18.9844ZM20.1562 3.51562H9.84375C8.16543 3.51562 6.55584 4.18234 5.36909 5.36909C4.18234 6.55584 3.51563 8.16543 3.51562 9.84375V20.1562C3.51562 21.8346 4.18234 23.4442 5.36909 24.6309C6.55584 25.8177 8.16543 26.4844 9.84375 26.4844H20.1562C21.8346 26.4844 23.4442 25.8177 24.6309 24.6309C25.8177 23.4442 26.4844 21.8346 26.4844 20.1562V9.84375C26.4844 8.16543 25.8177 6.55584 24.6309 5.36909C23.4442 4.18234 21.8346 3.51563 20.1562 3.51562ZM25.0781 20.1562C25.0781 21.4616 24.5596 22.7135 23.6365 23.6365C22.7135 24.5596 21.4616 25.0781 20.1562 25.0781H9.84375C8.53839 25.0781 7.28649 24.5596 6.36346 23.6365C5.44043 22.7135 4.92188 21.4616 4.92188 20.1562V9.84375C4.92188 8.53839 5.44043 7.28649 6.36346 6.36346C7.28649 5.44043 8.53839 4.92188 9.84375 4.92188H20.1562C21.4616 4.92188 22.7135 5.44043 23.6365 6.36346C24.5596 7.28649 25.0781 8.53839 25.0781 9.84375V20.1562ZM22.2656 8.90625C22.2656 9.13802 22.1969 9.36459 22.0681 9.55731C21.9394 9.75002 21.7563 9.90022 21.5422 9.98892C21.3281 10.0776 21.0925 10.1008 20.8651 10.0556C20.6378 10.0104 20.429 9.89878 20.2651 9.73489C20.1012 9.571 19.9896 9.36219 19.9444 9.13487C19.8992 8.90755 19.9224 8.67193 20.0111 8.45779C20.0998 8.24366 20.25 8.06064 20.4427 7.93187C20.6354 7.8031 20.862 7.73438 21.0938 7.73438C21.4046 7.73438 21.7026 7.85784 21.9224 8.07761C22.1422 8.29738 22.2656 8.59545 22.2656 8.90625Z" fill="black"/>
</svg>
