<svg width="100" height="100" viewBox="0 0 100 100" fill="none" xmlns="http://www.w3.org/2000/svg">
<rect width="100" height="100" fill="#A62B28"/>
<g clip-path="url(#clip0_1_37)">
<path d="M51.7395 46.8437L31.7954 66.7969C31.0616 67.5312 31.0616 68.7187 31.7954 69.4453C32.5291 70.1719 33.7156 70.1797 34.4416 69.4453L40.2804 63.6016C40.858 63.9609 41.4747 64.2422 42.1382 64.4219C45.6352 65.375 51.0759 65.5078 56.384 61.9844C57.3363 61.3515 56.8367 60 55.697 60H54.4403C54.0422 60 53.7221 59.6797 53.7221 59.2812C53.7221 58.9609 53.9329 58.6875 54.2295 58.5937L61.8559 56.3047C62.1213 56.2266 62.3555 56.0625 62.5116 55.8281C62.8551 55.3281 63.1829 54.8203 63.4951 54.2969C63.9791 53.4922 63.3781 52.5 62.4413 52.5H59.4283C59.0302 52.5 58.7101 52.1797 58.7101 51.7812C58.7101 51.4609 58.9209 51.1875 59.2175 51.0937L65.5325 49.1953C65.8916 49.0859 66.1882 48.8203 66.3287 48.4687C68.6002 42.7344 69.6384 36.7265 69.9584 32.875C70.0209 32.1015 69.7242 31.3437 69.1778 30.7969C68.6314 30.25 67.8742 29.9531 67.1015 30.0156C60.5601 30.5469 47.8365 33.164 40.7253 40.2812C34.4728 46.5391 34.426 53.6172 35.5656 57.8437C35.7295 58.4609 36.5023 58.5937 36.9551 58.1406L49.7958 45.2969C50.2797 44.8125 51.0759 44.8125 51.5599 45.2969C51.9814 45.7187 52.0361 46.3594 51.7316 46.8437H51.7395Z" fill="white"/>
</g>
<defs>
<clipPath id="clip0_1_37">
<rect x="30" y="30" width="39.9662" height="40" fill="white"/>
</clipPath>
</defs>
</svg>
