<svg width="30" height="30" viewBox="0 0 30 30" fill="none" xmlns="http://www.w3.org/2000/svg">
<path fill-rule="evenodd" clip-rule="evenodd" d="M12.4188 18.285V11.26L19.1725 14.785L12.4188 18.285ZM27.25 10.0437C27.25 10.0437 27.0062 8.32 26.2562 7.56125C25.3062 6.56625 24.24 6.56125 23.7512 6.5025C20.2537 6.25 15.005 6.25 15.005 6.25H14.995C14.995 6.25 9.7475 6.25 6.24875 6.5025C5.76 6.56125 4.695 6.565 3.74375 7.56125C2.99375 8.32 2.75 10.0437 2.75 10.0437C2.75 10.0437 2.5 12.0663 2.5 14.09V15.9862C2.5 18.0087 2.75 20.0325 2.75 20.0325C2.75 20.0325 2.99375 21.755 3.74375 22.5138C4.69375 23.51 5.94375 23.4775 6.5 23.5825C8.5 23.7737 15 23.8325 15 23.8325C15 23.8325 20.2537 23.825 23.7512 23.5725C24.24 23.5138 25.3062 23.51 26.2562 22.5138C27.0062 21.755 27.25 20.0325 27.25 20.0325C27.25 20.0325 27.5 18.0087 27.5 15.9862V14.09C27.5 12.0663 27.25 10.0437 27.25 10.0437Z" fill="black"/>
</svg>
